<?xml version="1.0" encoding="UTF-8"?>
<svg width="23px" height="365px" viewBox="0 0 23 365" version="1.1" xmlns="http://www.w3.org/2000/svg" xmlns:xlink="http://www.w3.org/1999/xlink">
    <title>Group 5</title>
    <g id="Digital-ID-Cards-(SP-1202)" stroke="none" stroke-width="1" fill="none" fill-rule="evenodd" opacity="0.394228981">
        <g id="Accounts-tab" transform="translate(-1015.000000, -146.000000)" fill="#FFFFFF" fill-rule="nonzero">
            <g id="Group-5" transform="translate(1015.000000, 146.000000)">
                <path d="M20.3041386,356.35775 L12.6013916,364.198529 C11.5557107,365.262949 9.86505062,365.267757 8.82519685,364.209269 C7.78534308,363.150781 7.79006716,361.429825 8.83574809,360.365406 L16.5384951,352.524627 L8.78736162,344.634594 C7.74168069,343.570175 7.73695661,341.849218 8.77681038,340.790731 C9.81666415,339.732243 11.5073242,339.737052 12.5530051,340.801471 L22.2247515,350.646534 C23.2543453,351.694577 23.2589965,353.389057 22.2351404,354.431261 L20.3233523,356.377308 L20.3041386,356.35775 Z M8.35097585,356.294509 L4.51624842,360.200252 C3.47749703,361.258241 1.80267503,361.26774 0.77542868,360.22147 C-0.251817669,359.1752 -0.24249082,357.469361 0.796260567,356.411373 L4.63098799,352.50563 L0.785206367,348.588627 C-0.25354502,347.530639 -0.262871869,345.8248 0.76437448,344.77853 C1.79162059,343.73226 3.46644283,343.74176 4.50519422,344.799748 L10.2268738,350.627388 C11.2496443,351.6691 11.2588276,353.348695 10.2473852,354.378868 L8.3587759,356.302453 L8.35097585,356.294509 Z" id="Arrow" opacity="0.297247024"></path>
            </g>
        </g>
    </g>
</svg>