<?xml version="1.0" encoding="UTF-8"?>
<svg width="20px" height="26px" viewBox="0 0 20 26" version="1.1" xmlns="http://www.w3.org/2000/svg" xmlns:xlink="http://www.w3.org/1999/xlink">
    <title>icons8-medical_history</title>
    <g id="Digital-ID-Cards-(SP-1202)" stroke="none" stroke-width="1" fill="none" fill-rule="evenodd">
        <g id="Teacher-Home" transform="translate(-1130.000000, -20.000000)" fill="#FFFFFF" fill-rule="nonzero">
            <g id="Group-4" transform="translate(1114.000000, 13.000000)">
                <g id="icons8-medical_history" transform="translate(16.000000, 7.000000)">
                    <path d="M18,0 L2,0 C0.895,0 0,0.895 0,2 L0,24 C0,25.105 0.895,26 2,26 L18,26 C19.105,26 20,25.105 20,24 L20,2 C20,0.895 19.105,0 18,0 Z M12,22 L4,22 C3.448,22 3,21.552 3,21 C3,20.448 3.448,20 4,20 L12,20 C12.552,20 13,20.448 13,21 C13,21.552 12.552,22 12,22 Z M16,16 C16.552,16 17,16.448 17,17 C17,17.552 16.552,18 16,18 L4,18 C3.448,18 3,17.552 3,17 C3,16.448 3.448,16 4,16 L16,16 Z M7.99918625,10.9166667 C8.96668625,10.9166667 10.1523371,11.4707746 10.4894204,11.8566079 C10.4898371,12.0249413 10.4906317,12.1823046 10.4910483,12.3310546 C9.75688167,12.7539713 8.90791667,13 8,13 C7.09166667,13 6.24270167,12.7543879 5.50895183,12.3310546 L5.50895183,12.3310546 L5.50976562,11.8566079 C5.84684896,11.4707746 7.03210292,10.9166667 7.99918625,10.9166667 Z M8,3 C10.76125,3 13,5.23875 13,8 C13,9.48416667 12.3498371,10.8134246 11.3227538,11.7288413 L11.3227538,11.7288413 L11.3227538,11.6075846 L11.26416,11.5099283 C10.8370767,10.7895117 9.21960292,10.0833333 7.99918625,10.0833333 C6.77960292,10.0833333 5.16252604,10.7899283 4.73502604,11.5099283 L4.73502604,11.5099283 L4.67724608,11.6067708 L4.67724608,11.7288413 C3.65057942,10.8130079 3,9.48416667 3,8 C3,5.23875 5.23875,3 8,3 Z M8,5.5 C7.08083333,5.5 6.33333333,6.2475 6.33333333,7.16666667 L6.33333333,7.16666667 L6.33333333,7.58333333 C6.33333333,8.5025 7.08083333,9.25 8,9.25 C8.91916667,9.25 9.66666667,8.5025 9.66666667,7.58333333 L9.66666667,7.58333333 L9.66666667,7.16666667 C9.66666667,6.2475 8.91916667,5.5 8,5.5 Z M8,6.33333333 C8.45958333,6.33333333 8.83333333,6.70708333 8.83333333,7.16666667 L8.83333333,7.16666667 L8.83333333,7.58333333 C8.83333333,8.04291667 8.45958333,8.41666667 8,8.41666667 C7.54041667,8.41666667 7.16666667,8.04291667 7.16666667,7.58333333 L7.16666667,7.58333333 L7.16666667,7.16666667 C7.16666667,6.70708333 7.54041667,6.33333333 8,6.33333333 Z" id="Shape"></path>
                </g>
            </g>
        </g>
    </g>
</svg>