<?xml version="1.0" encoding="UTF-8"?>
<svg width="23px" height="365px" viewBox="0 0 23 365" version="1.1" xmlns="http://www.w3.org/2000/svg" xmlns:xlink="http://www.w3.org/1999/xlink">
    <title>Group 5</title>
    <g id="Digital-ID-Cards-(SP-1202)" stroke="none" stroke-width="1" fill="none" fill-rule="evenodd" opacity="0.394228981">
        <g id="Accounts-tab" transform="translate(-1015.000000, -146.000000)" fill="#FFFFFF" fill-rule="nonzero">
            <g id="Group-5" transform="translate(1015.000000, 146.000000)">
                <path d="M20.3041386,356.35775 L12.6013916,364.198529 C11.5557107,365.262949 9.86505062,365.267757 8.82519685,364.209269 C7.78534308,363.150781 7.79006716,361.429825 8.83574809,360.365406 L16.5384951,352.524627 L8.78736162,344.634594 C7.74168069,343.570175 7.73695661,341.849218 8.77681038,340.790731 C9.81666415,339.732243 11.5073242,339.737052 12.5530051,340.801471 L22.2247515,350.646534 C23.2543453,351.694577 23.2589965,353.389057 22.2351404,354.431261 L20.3233523,356.377308 L20.3041386,356.35775 Z M8.35097585,356.294509 L4.51624842,360.200252 C3.47749703,361.258241 1.80267503,361.26774 0.77542868,360.22147 C-0.251817669,359.1752 -0.24249082,357.469361 0.796260567,356.411373 L4.63098799,352.50563 L0.785206367,348.588627 C-0.25354502,347.530639 -0.262871869,345.8248 0.76437448,344.77853 C1.79162059,343.73226 3.46644283,343.74176 4.50519422,344.799748 L10.2268738,350.627388 C11.2496443,351.6691 11.2588276,353.348695 10.2473852,354.378868 L8.3587759,356.302453 L8.35097585,356.294509 Z" id="Arrow" opacity="0.297247024"></path>
                <path d="M20.3041386,322.35775 L12.6013916,330.198529 C11.5557107,331.262949 9.86505062,331.267757 8.82519685,330.209269 C7.78534308,329.150781 7.79006716,327.429825 8.83574809,326.365406 L16.5384951,318.524627 L8.78736162,310.634594 C7.74168069,309.570175 7.73695661,307.849218 8.77681038,306.790731 C9.81666415,305.732243 11.5073242,305.737052 12.5530051,306.801471 L22.2247515,316.646534 C23.2543453,317.694577 23.2589965,319.389057 22.2351404,320.431261 L20.3233523,322.377308 L20.3041386,322.35775 Z M8.35097585,322.294509 L4.51624842,326.200252 C3.47749703,327.258241 1.80267503,327.26774 0.77542868,326.22147 C-0.251817669,325.1752 -0.24249082,323.469361 0.796260567,322.411373 L4.63098799,318.50563 L0.785206367,314.588627 C-0.25354502,313.530639 -0.262871869,311.8248 0.76437448,310.77853 C1.79162059,309.73226 3.46644283,309.74176 4.50519422,310.799748 L10.2268738,316.627388 C11.2496443,317.6691 11.2588276,319.348695 10.2473852,320.378868 L8.3587759,322.302453 L8.35097585,322.294509 Z" id="Arrow" opacity="0.297247024"></path>
                <path d="M20.3041386,288.35775 L12.6013916,296.198529 C11.5557107,297.262949 9.86505062,297.267757 8.82519685,296.209269 C7.78534308,295.150781 7.79006716,293.429825 8.83574809,292.365406 L16.5384951,284.524627 L8.78736162,276.634594 C7.74168069,275.570175 7.73695661,273.849218 8.77681038,272.790731 C9.81666415,271.732243 11.5073242,271.737052 12.5530051,272.801471 L22.2247515,282.646534 C23.2543453,283.694577 23.2589965,285.389057 22.2351404,286.431261 L20.3233523,288.377308 L20.3041386,288.35775 Z M8.35097585,288.294509 L4.51624842,292.200252 C3.47749703,293.258241 1.80267503,293.26774 0.77542868,292.22147 C-0.251817669,291.1752 -0.24249082,289.469361 0.796260567,288.411373 L4.63098799,284.50563 L0.785206367,280.588627 C-0.25354502,279.530639 -0.262871869,277.8248 0.76437448,276.77853 C1.79162059,275.73226 3.46644283,275.74176 4.50519422,276.799748 L10.2268738,282.627388 C11.2496443,283.6691 11.2588276,285.348695 10.2473852,286.378868 L8.3587759,288.302453 L8.35097585,288.294509 Z" id="Arrow" opacity="0.297247024"></path>
                <path d="M20.3041386,254.35775 L12.6013916,262.198529 C11.5557107,263.262949 9.86505062,263.267757 8.82519685,262.209269 C7.78534308,261.150781 7.79006716,259.429825 8.83574809,258.365406 L16.5384951,250.524627 L8.78736162,242.634594 C7.74168069,241.570175 7.73695661,239.849218 8.77681038,238.790731 C9.81666415,237.732243 11.5073242,237.737052 12.5530051,238.801471 L22.2247515,248.646534 C23.2543453,249.694577 23.2589965,251.389057 22.2351404,252.431261 L20.3233523,254.377308 L20.3041386,254.35775 Z M8.35097585,254.294509 L4.51624842,258.200252 C3.47749703,259.258241 1.80267503,259.26774 0.77542868,258.22147 C-0.251817669,257.1752 -0.24249082,255.469361 0.796260567,254.411373 L4.63098799,250.50563 L0.785206367,246.588627 C-0.25354502,245.530639 -0.262871869,243.8248 0.76437448,242.77853 C1.79162059,241.73226 3.46644283,241.74176 4.50519422,242.799748 L10.2268738,248.627388 C11.2496443,249.6691 11.2588276,251.348695 10.2473852,252.378868 L8.3587759,254.302453 L8.35097585,254.294509 Z" id="Arrow" opacity="0.297247024"></path>
                <path d="M20.3041386,220.35775 L12.6013916,228.198529 C11.5557107,229.262949 9.86505062,229.267757 8.82519685,228.209269 C7.78534308,227.150781 7.79006716,225.429825 8.83574809,224.365406 L16.5384951,216.524627 L8.78736162,208.634594 C7.74168069,207.570175 7.73695661,205.849218 8.77681038,204.790731 C9.81666415,203.732243 11.5073242,203.737052 12.5530051,204.801471 L22.2247515,214.646534 C23.2543453,215.694577 23.2589965,217.389057 22.2351404,218.431261 L20.3233523,220.377308 L20.3041386,220.35775 Z M8.35097585,220.294509 L4.51624842,224.200252 C3.47749703,225.258241 1.80267503,225.26774 0.77542868,224.22147 C-0.251817669,223.1752 -0.24249082,221.469361 0.796260567,220.411373 L4.63098799,216.50563 L0.785206367,212.588627 C-0.25354502,211.530639 -0.262871869,209.8248 0.76437448,208.77853 C1.79162059,207.73226 3.46644283,207.74176 4.50519422,208.799748 L10.2268738,214.627388 C11.2496443,215.6691 11.2588276,217.348695 10.2473852,218.378868 L8.3587759,220.302453 L8.35097585,220.294509 Z" id="Arrow" opacity="0.297247024"></path>
                <path d="M20.3041386,186.35775 L12.6013916,194.198529 C11.5557107,195.262949 9.86505062,195.267757 8.82519685,194.209269 C7.78534308,193.150781 7.79006716,191.429825 8.83574809,190.365406 L16.5384951,182.524627 L8.78736162,174.634594 C7.74168069,173.570175 7.73695661,171.849218 8.77681038,170.790731 C9.81666415,169.732243 11.5073242,169.737052 12.5530051,170.801471 L22.2247515,180.646534 C23.2543453,181.694577 23.2589965,183.389057 22.2351404,184.431261 L20.3233523,186.377308 L20.3041386,186.35775 Z M8.35097585,186.294509 L4.51624842,190.200252 C3.47749703,191.258241 1.80267503,191.26774 0.77542868,190.22147 C-0.251817669,189.1752 -0.24249082,187.469361 0.796260567,186.411373 L4.63098799,182.50563 L0.785206367,178.588627 C-0.25354502,177.530639 -0.262871869,175.8248 0.76437448,174.77853 C1.79162059,173.73226 3.46644283,173.74176 4.50519422,174.799748 L10.2268738,180.627388 C11.2496443,181.6691 11.2588276,183.348695 10.2473852,184.378868 L8.3587759,186.302453 L8.35097585,186.294509 Z" id="Arrow" opacity="0.297247024"></path>
                <path d="M20.3041386,152.35775 L12.6013916,160.198529 C11.5557107,161.262949 9.86505062,161.267757 8.82519685,160.209269 C7.78534308,159.150781 7.79006716,157.429825 8.83574809,156.365406 L16.5384951,148.524627 L8.78736162,140.634594 C7.74168069,139.570175 7.73695661,137.849218 8.77681038,136.790731 C9.81666415,135.732243 11.5073242,135.737052 12.5530051,136.801471 L22.2247515,146.646534 C23.2543453,147.694577 23.2589965,149.389057 22.2351404,150.431261 L20.3233523,152.377308 L20.3041386,152.35775 Z M8.35097585,152.294509 L4.51624842,156.200252 C3.47749703,157.258241 1.80267503,157.26774 0.77542868,156.22147 C-0.251817669,155.1752 -0.24249082,153.469361 0.796260567,152.411373 L4.63098799,148.50563 L0.785206367,144.588627 C-0.25354502,143.530639 -0.262871869,141.8248 0.76437448,140.77853 C1.79162059,139.73226 3.46644283,139.74176 4.50519422,140.799748 L10.2268738,146.627388 C11.2496443,147.6691 11.2588276,149.348695 10.2473852,150.378868 L8.3587759,152.302453 L8.35097585,152.294509 Z" id="Arrow" opacity="0.297247024"></path>
                <path d="M20.3041386,118.35775 L12.6013916,126.198529 C11.5557107,127.262949 9.86505062,127.267757 8.82519685,126.209269 C7.78534308,125.150781 7.79006716,123.429825 8.83574809,122.365406 L16.5384951,114.524627 L8.78736162,106.634594 C7.74168069,105.570175 7.73695661,103.849218 8.77681038,102.790731 C9.81666415,101.732243 11.5073242,101.737052 12.5530051,102.801471 L22.2247515,112.646534 C23.2543453,113.694577 23.2589965,115.389057 22.2351404,116.431261 L20.3233523,118.377308 L20.3041386,118.35775 Z M8.35097585,118.294509 L4.51624842,122.200252 C3.47749703,123.258241 1.80267503,123.26774 0.77542868,122.22147 C-0.251817669,121.1752 -0.24249082,119.469361 0.796260567,118.411373 L4.63098799,114.50563 L0.785206367,110.588627 C-0.25354502,109.530639 -0.262871869,107.8248 0.76437448,106.77853 C1.79162059,105.73226 3.46644283,105.74176 4.50519422,106.799748 L10.2268738,112.627388 C11.2496443,113.6691 11.2588276,115.348695 10.2473852,116.378868 L8.3587759,118.302453 L8.35097585,118.294509 Z" id="Arrow" opacity="0.297247024"></path>
                <path d="M20.3041386,84.35775 L12.6013916,92.1985289 C11.5557107,93.2629485 9.86505062,93.267757 8.82519685,92.2092692 C7.78534308,91.1507814 7.79006716,89.4298253 8.83574809,88.3654057 L16.5384951,80.5246268 L8.78736162,72.6345943 C7.74168069,71.5701748 7.73695661,69.8492185 8.77681038,68.7907307 C9.81666415,67.732243 11.5073242,67.7370516 12.5530051,68.8014711 L22.2247515,78.6465335 C23.2543453,79.6945773 23.2589965,81.3890574 22.2351404,82.4312608 L20.3233523,84.3773079 L20.3041386,84.35775 Z M8.35097585,84.2945086 L4.51624842,88.2002521 C3.47749703,89.2582406 1.80267503,89.2677399 0.77542868,88.22147 C-0.251817669,87.1751999 -0.24249082,85.4693614 0.796260567,84.4113731 L4.63098799,80.5056295 L0.785206367,76.5886269 C-0.25354502,75.5306386 -0.262871869,73.8248001 0.76437448,72.7785301 C1.79162059,71.73226 3.46644283,71.7417595 4.50519422,72.7997478 L10.2268738,78.6273883 C11.2496443,79.6690999 11.2588276,81.3486947 10.2473852,82.3788683 L8.3587759,84.3024531 L8.35097585,84.2945086 Z" id="Arrow" opacity="0.297247024"></path>
                <path d="M20.3041386,50.35775 L12.6013916,58.1985289 C11.5557107,59.2629485 9.86505062,59.267757 8.82519685,58.2092692 C7.78534308,57.1507814 7.79006716,55.4298253 8.83574809,54.3654057 L16.5384951,46.5246268 L8.78736162,38.6345943 C7.74168069,37.5701748 7.73695661,35.8492185 8.77681038,34.7907307 C9.81666415,33.732243 11.5073242,33.7370516 12.5530051,34.8014711 L22.2247515,44.6465335 C23.2543453,45.6945773 23.2589965,47.3890574 22.2351404,48.4312608 L20.3233523,50.3773079 L20.3041386,50.35775 Z M8.35097585,50.2945086 L4.51624842,54.2002521 C3.47749703,55.2582406 1.80267503,55.2677399 0.77542868,54.22147 C-0.251817669,53.1751999 -0.24249082,51.4693614 0.796260567,50.4113731 L4.63098799,46.5056295 L0.785206367,42.5886269 C-0.25354502,41.5306386 -0.262871869,39.8248001 0.76437448,38.7785301 C1.79162059,37.73226 3.46644283,37.7417595 4.50519422,38.7997478 L10.2268738,44.6273883 C11.2496443,45.6690999 11.2588276,47.3486947 10.2473852,48.3788683 L8.3587759,50.3024531 L8.35097585,50.2945086 Z" id="Arrow" opacity="0.297247024"></path>
                <path d="M20.3041386,16.35775 L12.6013916,24.1985289 C11.5557107,25.2629485 9.86505062,25.267757 8.82519685,24.2092692 C7.78534308,23.1507814 7.79006716,21.4298253 8.83574809,20.3654057 L16.5384951,12.5246268 L8.78736162,4.63459432 C7.74168069,3.57017481 7.73695661,1.84921845 8.77681038,0.790730698 C9.81666415,-0.267757032 11.5073242,-0.262948424 12.5530051,0.801471086 L22.2247515,10.6465335 C23.2543453,11.6945773 23.2589965,13.3890574 22.2351404,14.4312608 L20.3233523,16.3773079 L20.3041386,16.35775 Z M8.35097585,16.2945086 L4.51624842,20.2002521 C3.47749703,21.2582406 1.80267503,21.2677399 0.77542868,20.22147 C-0.251817669,19.1751999 -0.24249082,17.4693614 0.796260567,16.4113731 L4.63098799,12.5056295 L0.785206367,8.58862692 C-0.25354502,7.5306386 -0.262871869,5.82480013 0.76437448,4.77853005 C1.79162059,3.73225997 3.46644283,3.7417595 4.50519422,4.79974782 L10.2268738,10.6273883 C11.2496443,11.6690999 11.2588276,13.3486947 10.2473852,14.3788683 L8.3587759,16.3024531 L8.35097585,16.2945086 Z" id="Arrow" opacity="0.297247024"></path>
            </g>
        </g>
    </g>
</svg>