<?xml version="1.0" encoding="UTF-8"?>
<svg width="100px" height="100px" viewBox="0 0 100 100" version="1.1" xmlns="http://www.w3.org/2000/svg" xmlns:xlink="http://www.w3.org/1999/xlink">
    <title>icons8-no_mobile</title>
    <g id="Disable-mobile-devices-(SP-1198)" stroke="none" stroke-width="1" fill="none" fill-rule="evenodd">
        <g id="Artboard" transform="translate(-244.000000, -192.000000)" fill="#B7C1CF" fill-rule="nonzero">
            <g id="icons8-no_mobile" transform="translate(244.000000, 192.000000)">
                <path d="M4.80743679,0 L0,4.80743679 L95.1925647,100 L100,95.1925647 L80.5976102,75.790175 L80.5976102,9.20318733 C80.5976102,5.44648079 77.5548479,2.40371848 73.7981414,2.40371848 L26.2018595,2.40371848 C22.4451529,2.40371848 19.4023906,5.44648079 19.4023906,9.20318733 L19.4023906,14.5949536 L4.80743679,0 Z M44.9003988,5.8034529 L51.6998676,5.8034529 C52.6381943,5.8034529 53.3997348,6.56499342 53.3997348,7.50332012 C53.3997348,8.44164682 52.6381943,9.20318733 51.6998676,9.20318733 L44.9003988,9.20318733 C43.9620721,9.20318733 43.2005316,8.44164682 43.2005316,7.50332012 C43.2005316,6.56499342 43.9620721,5.8034529 44.9003988,5.8034529 Z M58.4993365,5.8034529 C59.4376632,5.8034529 60.1992037,6.56499342 60.1992037,7.50332012 C60.1992037,8.44164682 59.4376632,9.20318733 58.4993365,9.20318733 C57.5610098,9.20318733 56.7994693,8.44164682 56.7994693,7.50332012 C56.7994693,6.56499342 57.5610098,5.8034529 58.4993365,5.8034529 Z M26.2018595,9.20318733 L36.4010627,9.20318733 L37.8087636,10.6108899 C39.083664,11.8857903 40.814343,12.6029218 42.6162022,12.6029218 L57.3837986,12.6029218 C59.1856579,12.6029218 60.9163369,11.8857903 62.1912373,10.6108899 L63.5989381,9.20318733 L73.7981414,9.20318733 L73.7981414,68.9907061 L26.2018595,21.3944225 L26.2018595,9.20318733 Z M19.4023906,33.5856577 L19.4023906,90.7968135 C19.4023906,94.5535201 22.4451529,97.5962824 26.2018595,97.5962824 L73.7981414,97.5962824 C76.4057377,97.5962824 78.6385677,96.1127777 79.7808784,93.9641455 L73.7981414,87.9814085 L73.7981414,90.7968135 L26.2018595,90.7968135 L26.2018595,40.3851265 L19.4023906,33.5856577 Z" id="Shape"></path>
            </g>
        </g>
    </g>
</svg>