<svg xmlns="http://www.w3.org/2000/svg" width="13" height="13" viewBox="0 0 13 13">
  <path fill="rgb(112,131,160)" fill-rule="evenodd" d="M3.54545455 0L0 3.54542218l3.54545455 3.54542217V4.72722957h4.13636363c1.6457551 0 2.95454546 1.30877841 2.95454546 2.95451848 0 1.64574006-1.30879037 2.95451848-2.95454546 2.95451848H5.90909091c-.42620608-.00602756-.82264161.21789608-1.03750367.5860262-.21486206.3681301-.21486206.82343227 0 1.19156238.21486206.36813011.61129759.59205376 1.03750367.5860262h1.77272727c2.76222227 0 4.98200537-2.16151331 5.22585227-4.86341455.0605188-.14398372.09189991-.29853426.09232955-.45471871 0-2.92312732-2.39502782-5.31813327-5.31818182-5.31813327H3.54545455V0z"/>
</svg>
